<?xml version="1.0" encoding="UTF-8"?>
<!DOCTYPE svg PUBLIC "-//W3C//DTD SVG 1.1//EN" "http://www.w3.org/Graphics/SVG/1.1/DTD/svg11.dtd">
<svg xmlns="http://www.w3.org/2000/svg" version="1.1" width="100px" height="100px" style="shape-rendering:geometricPrecision; text-rendering:geometricPrecision; image-rendering:optimizeQuality; fill-rule:evenodd; clip-rule:evenodd" xmlns:xlink="http://www.w3.org/1999/xlink">
<g><path style="opacity:1" fill="#ffffff" d="M 62.5,8.5 C 82.2513,7.45803 91.5846,15.958 85.5,34C 90.5253,43.393 89.1919,51.7263 81.5,59C 78.2652,60.2327 75.2652,61.8994 72.5,64C 69.2432,65.0429 65.9099,65.5429 62.5,65.5C 61.648,77.1925 55.3146,84.0258 43.5,86C 35.3373,87.0497 27.3373,86.3831 19.5,84C 9.20912,78.3863 6.70912,70.2197 12,59.5C 14.0673,56.93 16.5673,54.93 19.5,53.5C 18.4783,52.646 17.6449,51.646 17,50.5C 15.5954,38.1609 20.7621,29.6609 32.5,25C 35.9199,24.483 39.2532,23.6497 42.5,22.5C 43.876,18.9536 45.876,15.7869 48.5,13C 52.7727,11.9695 57.106,11.3028 61.5,11C 63.1749,10.0147 64.8415,9.18136 66.5,8.5 Z"/></g>
<g><path style="opacity:1" fill="#000100" d="M 65.5,11.5 C 82.22,10.895 87.8867,18.5616 82.5,34.5C 88.5608,47.8901 84.5608,57.0567 70.5,62C 67.1409,62.7713 63.8075,63.6047 60.5,64.5C 60.6163,72.1021 57.283,77.6021 50.5,81C 40.8333,84.3333 31.1667,84.3333 21.5,81C 12.6654,76.4794 10.1654,69.646 14,60.5C 16.5664,57.9336 19.0664,55.4336 21.5,53C 17.6261,44.3709 19.2928,37.0376 26.5,31C 31.7662,27.7676 37.4329,25.6009 43.5,24.5C 46.5862,16.2814 52.5862,12.7814 61.5,14C 62.8584,13.0656 64.1917,12.2323 65.5,11.5 Z"/></g>
<g><path style="opacity:1" fill="#f6f6f6" d="M 70.5,18.5 C 74.7226,19.2229 77.0559,21.7229 77.5,26C 76.6633,28.5885 74.9966,30.4219 72.5,31.5C 72.0308,27.3033 70.6974,23.4699 68.5,20C 69.4158,19.7216 70.0825,19.2216 70.5,18.5 Z"/></g>
<g><path style="opacity:0.999" fill="#fcfcfc" d="M 53.5,22.5 C 60.8269,21.3293 63.9936,24.3293 63,31.5C 59.3333,35.5 55.6667,35.5 52,31.5C 51.2069,28.2587 51.7069,25.2587 53.5,22.5 Z"/></g>
<g><path style="opacity:1" fill="#0b6a02" d="M 40.5,32.5 C 41.8333,32.5 43.1667,32.5 44.5,32.5C 46.0177,37.5164 49.351,40.6831 54.5,42C 60.1761,42.0351 65.6761,41.2018 71,39.5C 80.0068,41.3802 80.8401,45.5469 73.5,52C 57.9202,59.6468 42.7535,58.4801 28,48.5C 26.0156,45.4157 26.1823,42.4157 28.5,39.5C 32.2674,36.6215 36.2674,34.2882 40.5,32.5 Z"/></g>
<g><path style="opacity:1" fill="#0c7c02" d="M 27.5,59.5 C 35.2392,62.2672 43.2392,64.1006 51.5,65C 52.9614,67.9852 52.2947,70.4852 49.5,72.5C 41.4324,77.1876 33.0991,77.6876 24.5,74C 17.4569,67.6601 18.4569,62.8268 27.5,59.5 Z"/></g>
</svg>
